<?xml version="1.0" standalone="no"?>
<!DOCTYPE svg PUBLIC "-//W3C//DTD SVG 20010904//EN"
 "http://www.w3.org/TR/2001/REC-SVG-20010904/DTD/svg10.dtd">
<svg version="1.0" xmlns="http://www.w3.org/2000/svg"
 width="260.000000pt" height="260.000000pt" viewBox="0 0 260.000000 260.000000"
 preserveAspectRatio="xMidYMid meet">
<metadata>
Created by potrace 1.14, written by Peter Selinger 2001-2017
</metadata>
<g transform="translate(0.000000,260.000000) scale(0.100000,-0.100000)"
fill="#000000" stroke="none">
<path d="M1042 1553 c-89 -90 -117 -113 -130 -106 -9 4 -137 9 -285 11 l-267
3 0 -32 c0 -30 -1 -31 -17 -16 -39 34 -97 48 -194 45 l-94 -3 -1 -143 c-1
-192 -5 -187 149 -186 87 1 122 5 140 16 21 15 24 15 33 0 8 -12 34 -15 138
-16 70 -1 131 1 135 4 6 4 7 32 2 77 0 6 -9 12 -18 12 -35 0 -126 11 -131 16
-3 3 22 5 55 5 55 0 61 2 65 23 8 47 -2 67 -33 67 -16 0 -29 5 -29 10 0 6 30
10 70 10 l70 0 0 -92 c1 -113 10 -130 72 -130 24 0 49 0 56 1 9 1 12 30 12
111 l0 110 76 0 c88 0 89 10 -10 -109 -45 -55 -57 -76 -53 -94 6 -20 12 -22
67 -21 l60 1 -16 -26 c-9 -14 -27 -37 -39 -51 -12 -14 -34 -42 -49 -62 l-27
-37 28 -15 c32 -16 30 -17 232 176 l64 61 19 -23 c15 -18 29 -23 73 -24 l55
-2 1 51 c0 48 1 49 16 28 11 -17 25 -23 54 -23 31 0 41 -5 54 -28 16 -27 17
-27 127 -26 106 0 111 1 123 24 19 35 66 36 89 1 18 -26 20 -27 130 -26 l111
1 3 42 c4 49 16 53 36 14 8 -16 22 -34 31 -42 19 -16 137 -21 127 -5 -4 7 -1
7 9 -1 12 -9 44 -10 107 -5 8 1 12 13 11 34 -4 66 0 75 18 42 37 -69 49 -78
112 -80 l59 -1 -24 46 c-13 25 -33 61 -44 79 l-20 35 27 45 c14 26 34 60 45
78 23 39 16 44 -72 51 l-67 4 -13 -33 -14 -32 -8 25 c-9 27 -39 38 -104 38
-32 0 -34 -2 -34 -36 0 -36 0 -36 -18 -15 -9 12 -24 23 -32 25 -8 1 -25 7 -37
14 -13 7 -64 12 -127 12 l-106 0 -1 -122 0 -123 -43 110 c-32 80 -49 111 -62
113 -11 2 -28 8 -40 13 -11 6 -36 9 -55 7 -33 -3 -35 -5 -76 -113 l-42 -110 1
98 c1 62 -3 102 -10 109 -7 7 -38 14 -71 16 l-60 4 -28 -51 c-15 -28 -31 -51
-34 -51 -3 0 -15 18 -28 40 -12 22 -27 43 -34 47 -7 4 -54 10 -106 13 l-93 5
63 79 63 79 -28 23 c-15 13 -32 23 -39 23 -7 -1 -63 -53 -125 -116z m1028
-217 c0 -7 -9 -16 -20 -19 -15 -4 -20 0 -20 14 0 12 7 19 20 19 11 0 20 -6 20
-14z m-889 -18 c1 -26 -2 -92 -4 -95 -1 0 -23 1 -49 4 l-46 5 41 53 c47 60 57
65 58 33z m-824 -30 c-3 -8 -6 -5 -6 6 -1 11 2 17 5 13 3 -3 4 -12 1 -19z
m1853 -68 c0 -42 -14 -54 -25 -21 -5 16 12 61 22 61 2 0 3 -18 3 -40z m-1987
13 c-7 -2 -19 -2 -25 0 -7 3 -2 5 12 5 14 0 19 -2 13 -5z"/>
</g>
</svg>
